<?xml version="1.0" encoding="UTF-8" standalone="no"?>
<!DOCTYPE svg PUBLIC "-//W3C//DTD SVG 1.1//EN"
 "http://www.w3.org/Graphics/SVG/1.1/DTD/svg11.dtd">
<!-- Generated by graphviz version 2.26.3 (20100126.1600)
 -->
<!-- Title: _anonymous_0 Pages: 1 -->
<svg width="1120pt" height="562pt"
 viewBox="0.00 0.00 1119.60 561.60" xmlns="http://www.w3.org/2000/svg" xmlns:xlink="http://www.w3.org/1999/xlink">
<g id="graph1" class="graph" transform="scale(1 1) rotate(0) translate(28.8 532.8)">
<title>_anonymous_0</title>
<polygon fill="white" stroke="white" points="-28.8,29.8 -28.8,-532.8 1091.8,-532.8 1091.8,29.8 -28.8,29.8"/>
<!-- m_Admin -->
<g id="node1" class="node"><title>m_Admin</title>
<polyline fill="none" stroke="black" points="558.5,-412.5 679.5,-412.5 "/>
<path fill="none" stroke="black" d="M679.5,-412.5C685.5,-412.5 691.5,-418.5 691.5,-424.5"/>
<polyline fill="none" stroke="black" points="691.5,-424.5 691.5,-491.5 "/>
<path fill="none" stroke="black" d="M691.5,-491.5C691.5,-497.5 685.5,-503.5 679.5,-503.5"/>
<polyline fill="none" stroke="black" points="679.5,-503.5 558.5,-503.5 "/>
<path fill="none" stroke="black" d="M558.5,-503.5C552.5,-503.5 546.5,-497.5 546.5,-491.5"/>
<polyline fill="none" stroke="black" points="546.5,-491.5 546.5,-424.5 "/>
<path fill="none" stroke="black" d="M546.5,-424.5C546.5,-418.5 552.5,-412.5 558.5,-412.5"/>
<text text-anchor="start" x="601" y="-490.433" font-family="Arial Bold" font-size="11.00">Admin</text>
<polyline fill="none" stroke="black" points="546.5,-483.5 691.5,-483.5 "/>
<text text-anchor="start" x="554" y="-469.167" font-family="Arial" font-size="10.00">email </text>
<text text-anchor="start" x="581" y="-469.167" font-family="Arial Italic" font-size="10.00" fill="#999999">string</text>
<text text-anchor="start" x="554" y="-456.667" font-family="Arial" font-size="10.00">owner_admins_type </text>
<text text-anchor="start" x="644" y="-456.667" font-family="Arial Italic" font-size="10.00" fill="#999999">string</text>
<text text-anchor="start" x="554" y="-444.667" font-family="Arial" font-size="10.00">password </text>
<text text-anchor="start" x="599" y="-444.667" font-family="Arial Italic" font-size="10.00" fill="#999999">string ∗</text>
<text text-anchor="start" x="554" y="-432.667" font-family="Arial" font-size="10.00">superadmin </text>
<text text-anchor="start" x="608" y="-432.667" font-family="Arial Italic" font-size="10.00" fill="#999999">boolean</text>
<text text-anchor="start" x="554" y="-420.667" font-family="Arial" font-size="10.00">username </text>
<text text-anchor="start" x="600" y="-420.667" font-family="Arial Italic" font-size="10.00" fill="#999999">string ∗</text>
</g>
<!-- m_AnonymousUser -->
<g id="node2" class="node"><title>m_AnonymousUser</title>
<polyline fill="none" stroke="#999999" points="925.5,-455 1046.5,-455 "/>
<path fill="none" stroke="#999999" d="M1046.5,-455C1052.5,-455 1058.5,-461 1058.5,-467"/>
<polyline fill="none" stroke="#999999" points="1058.5,-467 1058.5,-479 "/>
<path fill="none" stroke="#999999" d="M1058.5,-479C1058.5,-485 1052.5,-491 1046.5,-491"/>
<polyline fill="none" stroke="#999999" points="1046.5,-491 925.5,-491 "/>
<path fill="none" stroke="#999999" d="M925.5,-491C919.5,-491 913.5,-485 913.5,-479"/>
<polyline fill="none" stroke="#999999" points="913.5,-479 913.5,-467 "/>
<path fill="none" stroke="#999999" d="M913.5,-467C913.5,-461 919.5,-455 925.5,-455"/>
<text text-anchor="start" x="940.5" y="-469.933" font-family="Arial Bold" font-size="11.00" fill="#999999">AnonymousUser</text>
</g>
<!-- m_Branch -->
<g id="node3" class="node"><title>m_Branch</title>
<polyline fill="none" stroke="black" points="194.5,-297.5 315.5,-297.5 "/>
<path fill="none" stroke="black" d="M315.5,-297.5C321.5,-297.5 327.5,-303.5 327.5,-309.5"/>
<polyline fill="none" stroke="black" points="327.5,-309.5 327.5,-328.5 "/>
<path fill="none" stroke="black" d="M327.5,-328.5C327.5,-334.5 321.5,-340.5 315.5,-340.5"/>
<polyline fill="none" stroke="black" points="315.5,-340.5 194.5,-340.5 "/>
<path fill="none" stroke="black" d="M194.5,-340.5C188.5,-340.5 182.5,-334.5 182.5,-328.5"/>
<polyline fill="none" stroke="black" points="182.5,-328.5 182.5,-309.5 "/>
<path fill="none" stroke="black" d="M182.5,-309.5C182.5,-303.5 188.5,-297.5 194.5,-297.5"/>
<text text-anchor="start" x="234" y="-327.433" font-family="Arial Bold" font-size="11.00">Branch</text>
<polyline fill="none" stroke="black" points="182.5,-320.5 327.5,-320.5 "/>
<text text-anchor="start" x="190" y="-306.167" font-family="Arial" font-size="10.00">name </text>
<text text-anchor="start" x="218" y="-306.167" font-family="Arial Italic" font-size="10.00" fill="#999999">string ∗</text>
</g>
<!-- m_Branch&#45;&gt;m_Admin -->
<g id="edge18" class="edge"><title>m_Branch&#45;&gt;m_Admin</title>
<path fill="none" stroke="black" d="M271.781,-340.664C291.572,-364.975 326.544,-404.243 364,-429 393.124,-448.25 402.668,-451.668 437,-458"/>
<path fill="none" stroke="black" d="M437,-458C469.382,-463.973 505.56,-465.082 537.077,-464.299"/>
<polygon fill="black" stroke="black" points="537.368,-467.442 546.266,-464.014 537.173,-461.145 537.368,-467.442"/>
</g>
<!-- m_Department -->
<g id="node5" class="node"><title>m_Department</title>
<polyline fill="none" stroke="black" points="376.5,-297.5 497.5,-297.5 "/>
<path fill="none" stroke="black" d="M497.5,-297.5C503.5,-297.5 509.5,-303.5 509.5,-309.5"/>
<polyline fill="none" stroke="black" points="509.5,-309.5 509.5,-328.5 "/>
<path fill="none" stroke="black" d="M509.5,-328.5C509.5,-334.5 503.5,-340.5 497.5,-340.5"/>
<polyline fill="none" stroke="black" points="497.5,-340.5 376.5,-340.5 "/>
<path fill="none" stroke="black" d="M376.5,-340.5C370.5,-340.5 364.5,-334.5 364.5,-328.5"/>
<polyline fill="none" stroke="black" points="364.5,-328.5 364.5,-309.5 "/>
<path fill="none" stroke="black" d="M364.5,-309.5C364.5,-303.5 370.5,-297.5 376.5,-297.5"/>
<text text-anchor="start" x="404" y="-327.433" font-family="Arial Bold" font-size="11.00">Department</text>
<polyline fill="none" stroke="black" points="364.5,-320.5 509.5,-320.5 "/>
<text text-anchor="start" x="372" y="-306.167" font-family="Arial" font-size="10.00">name </text>
<text text-anchor="start" x="400" y="-306.167" font-family="Arial Italic" font-size="10.00" fill="#999999">string ∗</text>
</g>
<!-- m_Branch&#45;&gt;m_Department -->
<g id="edge26" class="edge"><title>m_Branch&#45;&gt;m_Department</title>
<path fill="none" stroke="black" d="M327.716,-319C336.775,-319 346.087,-319 355.272,-319"/>
<polygon fill="black" stroke="black" points="355.4,-322.15 364.4,-319 355.4,-315.85 355.4,-322.15"/>
</g>
<!-- m_Options -->
<g id="node9" class="node"><title>m_Options</title>
<polyline fill="none" stroke="black" points="740.5,-112.5 861.5,-112.5 "/>
<path fill="none" stroke="black" d="M861.5,-112.5C867.5,-112.5 873.5,-118.5 873.5,-124.5"/>
<polyline fill="none" stroke="black" points="873.5,-124.5 873.5,-227.5 "/>
<path fill="none" stroke="black" d="M873.5,-227.5C873.5,-233.5 867.5,-239.5 861.5,-239.5"/>
<polyline fill="none" stroke="black" points="861.5,-239.5 740.5,-239.5 "/>
<path fill="none" stroke="black" d="M740.5,-239.5C734.5,-239.5 728.5,-233.5 728.5,-227.5"/>
<polyline fill="none" stroke="black" points="728.5,-227.5 728.5,-124.5 "/>
<path fill="none" stroke="black" d="M728.5,-124.5C728.5,-118.5 734.5,-112.5 740.5,-112.5"/>
<text text-anchor="start" x="778" y="-226.433" font-family="Arial Bold" font-size="11.00">Options</text>
<polyline fill="none" stroke="black" points="728.5,-219.5 873.5,-219.5 "/>
<text text-anchor="start" x="736" y="-205.167" font-family="Arial" font-size="10.00">age_limit_higher </text>
<text text-anchor="start" x="810" y="-205.167" font-family="Arial Italic" font-size="10.00" fill="#999999">integer</text>
<text text-anchor="start" x="736" y="-192.667" font-family="Arial" font-size="10.00">age_limit_lower </text>
<text text-anchor="start" x="806" y="-192.667" font-family="Arial Italic" font-size="10.00" fill="#999999">integer</text>
<text text-anchor="start" x="736" y="-180.667" font-family="Arial" font-size="10.00">homepage </text>
<text text-anchor="start" x="785" y="-180.667" font-family="Arial Italic" font-size="10.00" fill="#999999">string</text>
<text text-anchor="start" x="736" y="-168.667" font-family="Arial" font-size="10.00">owner_options_type </text>
<text text-anchor="start" x="826" y="-168.667" font-family="Arial Italic" font-size="10.00" fill="#999999">string</text>
<text text-anchor="start" x="736" y="-156.667" font-family="Arial" font-size="10.00">printeraddr </text>
<text text-anchor="start" x="785" y="-156.667" font-family="Arial Italic" font-size="10.00" fill="#999999">string</text>
<text text-anchor="start" x="736" y="-144.667" font-family="Arial" font-size="10.00">shorttime_limit </text>
<text text-anchor="start" x="803" y="-144.667" font-family="Arial Italic" font-size="10.00" fill="#999999">integer</text>
<text text-anchor="start" x="736" y="-132.667" font-family="Arial" font-size="10.00">time_limit </text>
<text text-anchor="start" x="782" y="-132.667" font-family="Arial Italic" font-size="10.00" fill="#999999">integer</text>
<text text-anchor="start" x="736" y="-120.667" font-family="Arial" font-size="10.00">time_limit_no_limit </text>
<text text-anchor="start" x="821" y="-120.667" font-family="Arial Italic" font-size="10.00" fill="#999999">boolean</text>
</g>
<!-- m_Branch&#45;&gt;m_Options -->
<g id="edge10" class="edge"><title>m_Branch&#45;&gt;m_Options</title>
<path fill="none" stroke="black" d="M295.513,-297.438C331.496,-279.985 386.117,-257.576 437,-253"/>
</g>
<!-- m_Client -->
<g id="node4" class="node"><title>m_Client</title>
<polyline fill="none" stroke="black" points="558.5,-303.5 679.5,-303.5 "/>
<path fill="none" stroke="black" d="M679.5,-303.5C685.5,-303.5 691.5,-309.5 691.5,-315.5"/>
<polyline fill="none" stroke="black" points="691.5,-315.5 691.5,-370.5 "/>
<path fill="none" stroke="black" d="M691.5,-370.5C691.5,-376.5 685.5,-382.5 679.5,-382.5"/>
<polyline fill="none" stroke="black" points="679.5,-382.5 558.5,-382.5 "/>
<path fill="none" stroke="black" d="M558.5,-382.5C552.5,-382.5 546.5,-376.5 546.5,-370.5"/>
<polyline fill="none" stroke="black" points="546.5,-370.5 546.5,-315.5 "/>
<path fill="none" stroke="black" d="M546.5,-315.5C546.5,-309.5 552.5,-303.5 558.5,-303.5"/>
<text text-anchor="start" x="601.5" y="-369.433" font-family="Arial Bold" font-size="11.00">Client</text>
<polyline fill="none" stroke="black" points="546.5,-362.5 691.5,-362.5 "/>
<text text-anchor="start" x="554" y="-348.167" font-family="Arial" font-size="10.00">hwaddr </text>
<text text-anchor="start" x="588" y="-348.167" font-family="Arial Italic" font-size="10.00" fill="#999999">string ∗</text>
<text text-anchor="start" x="554" y="-335.667" font-family="Arial" font-size="10.00">ipaddr </text>
<text text-anchor="start" x="584" y="-335.667" font-family="Arial Italic" font-size="10.00" fill="#999999">string ∗</text>
<text text-anchor="start" x="554" y="-323.667" font-family="Arial" font-size="10.00">name </text>
<text text-anchor="start" x="582" y="-323.667" font-family="Arial Italic" font-size="10.00" fill="#999999">string ∗</text>
<text text-anchor="start" x="554" y="-311.667" font-family="Arial" font-size="10.00">shorttime </text>
<text text-anchor="start" x="598" y="-311.667" font-family="Arial Italic" font-size="10.00" fill="#999999">boolean</text>
</g>
<!-- m_Client&#45;&gt;m_Options -->
<g id="edge12" class="edge"><title>m_Client&#45;&gt;m_Options</title>
<path fill="none" stroke="black" d="M662.131,-303.423C682.839,-284.422 708.171,-261.178 731.502,-239.77"/>
</g>
<!-- m_User -->
<g id="node12" class="node"><title>m_User</title>
<polyline fill="none" stroke="black" points="740.5,-297.5 861.5,-297.5 "/>
<path fill="none" stroke="black" d="M861.5,-297.5C867.5,-297.5 873.5,-303.5 873.5,-309.5"/>
<polyline fill="none" stroke="black" points="873.5,-309.5 873.5,-376.5 "/>
<path fill="none" stroke="black" d="M873.5,-376.5C873.5,-382.5 867.5,-388.5 861.5,-388.5"/>
<polyline fill="none" stroke="black" points="861.5,-388.5 740.5,-388.5 "/>
<path fill="none" stroke="black" d="M740.5,-388.5C734.5,-388.5 728.5,-382.5 728.5,-376.5"/>
<polyline fill="none" stroke="black" points="728.5,-376.5 728.5,-309.5 "/>
<path fill="none" stroke="black" d="M728.5,-309.5C728.5,-303.5 734.5,-297.5 740.5,-297.5"/>
<text text-anchor="start" x="786.5" y="-375.433" font-family="Arial Bold" font-size="11.00">User</text>
<polyline fill="none" stroke="black" points="728.5,-368.5 873.5,-368.5 "/>
<text text-anchor="start" x="736" y="-354.167" font-family="Arial" font-size="10.00">age </text>
<text text-anchor="start" x="755" y="-354.167" font-family="Arial Italic" font-size="10.00" fill="#999999">integer</text>
<text text-anchor="start" x="736" y="-341.667" font-family="Arial" font-size="10.00">minutes </text>
<text text-anchor="start" x="774" y="-341.667" font-family="Arial Italic" font-size="10.00" fill="#999999">integer ∗</text>
<text text-anchor="start" x="736" y="-329.667" font-family="Arial" font-size="10.00">name </text>
<text text-anchor="start" x="764" y="-329.667" font-family="Arial Italic" font-size="10.00" fill="#999999">string</text>
<text text-anchor="start" x="736" y="-317.667" font-family="Arial" font-size="10.00">password </text>
<text text-anchor="start" x="781" y="-317.667" font-family="Arial Italic" font-size="10.00" fill="#999999">string</text>
<text text-anchor="start" x="736" y="-305.667" font-family="Arial" font-size="10.00">username </text>
<text text-anchor="start" x="782" y="-305.667" font-family="Arial Italic" font-size="10.00" fill="#999999">string</text>
</g>
<!-- m_Client&#45;&gt;m_User -->
<g id="edge30" class="edge"><title>m_Client&#45;&gt;m_User</title>
<path fill="none" stroke="black" d="M691.716,-343C703.795,-343 716.323,-343 728.4,-343"/>
</g>
<!-- m_Department&#45;&gt;m_Admin -->
<g id="edge20" class="edge"><title>m_Department&#45;&gt;m_Admin</title>
<path fill="none" stroke="black" d="M486.141,-340.531C494.455,-345.104 502.736,-350.296 510,-356 529.337,-371.183 528.437,-380.796 546,-398 548.769,-400.712 551.648,-403.435 554.594,-406.142"/>
<polygon fill="black" stroke="black" points="552.773,-408.741 561.569,-412.423 556.988,-404.059 552.773,-408.741"/>
</g>
<!-- m_Department&#45;&gt;m_Client -->
<g id="edge28" class="edge"><title>m_Department&#45;&gt;m_Client</title>
<path fill="none" stroke="black" d="M509.716,-328.589C518.775,-329.784 528.087,-331.012 537.272,-332.223"/>
<polygon fill="black" stroke="black" points="537.065,-335.373 546.4,-333.426 537.889,-329.127 537.065,-335.373"/>
</g>
<!-- m_Department&#45;&gt;m_Options -->
<g id="edge14" class="edge"><title>m_Department&#45;&gt;m_Options</title>
<path fill="none" stroke="black" d="M491.4,-297.395C527.283,-283.611 575.518,-265.966 619,-253"/>
</g>
<!-- m_GuestUser -->
<g id="node6" class="node"><title>m_GuestUser</title>
<polyline fill="none" stroke="#999999" points="925.5,-390 1046.5,-390 "/>
<path fill="none" stroke="#999999" d="M1046.5,-390C1052.5,-390 1058.5,-396 1058.5,-402"/>
<polyline fill="none" stroke="#999999" points="1058.5,-402 1058.5,-414 "/>
<path fill="none" stroke="#999999" d="M1058.5,-414C1058.5,-420 1052.5,-426 1046.5,-426"/>
<polyline fill="none" stroke="#999999" points="1046.5,-426 925.5,-426 "/>
<path fill="none" stroke="#999999" d="M925.5,-426C919.5,-426 913.5,-420 913.5,-414"/>
<polyline fill="none" stroke="#999999" points="913.5,-414 913.5,-402 "/>
<path fill="none" stroke="#999999" d="M913.5,-402C913.5,-396 919.5,-390 925.5,-390"/>
<text text-anchor="start" x="955.5" y="-404.933" font-family="Arial Bold" font-size="11.00" fill="#999999">GuestUser</text>
</g>
<!-- m_LibraryUser -->
<g id="node7" class="node"><title>m_LibraryUser</title>
<polyline fill="none" stroke="#999999" points="925.5,-325 1046.5,-325 "/>
<path fill="none" stroke="#999999" d="M1046.5,-325C1052.5,-325 1058.5,-331 1058.5,-337"/>
<polyline fill="none" stroke="#999999" points="1058.5,-337 1058.5,-349 "/>
<path fill="none" stroke="#999999" d="M1058.5,-349C1058.5,-355 1052.5,-361 1046.5,-361"/>
<polyline fill="none" stroke="#999999" points="1046.5,-361 925.5,-361 "/>
<path fill="none" stroke="#999999" d="M925.5,-361C919.5,-361 913.5,-355 913.5,-349"/>
<polyline fill="none" stroke="#999999" points="913.5,-349 913.5,-337 "/>
<path fill="none" stroke="#999999" d="M913.5,-337C913.5,-331 919.5,-325 925.5,-325"/>
<text text-anchor="start" x="952.5" y="-339.933" font-family="Arial Bold" font-size="11.00" fill="#999999">LibraryUser</text>
</g>
<!-- m_OpeningHours -->
<g id="node8" class="node"><title>m_OpeningHours</title>
<polyline fill="none" stroke="black" points="922.5,-0.5 1049.5,-0.5 "/>
<path fill="none" stroke="black" d="M1049.5,-0.5C1055.5,-0.5 1061.5,-6.5 1061.5,-12.5"/>
<polyline fill="none" stroke="black" points="1061.5,-12.5 1061.5,-283.5 "/>
<path fill="none" stroke="black" d="M1061.5,-283.5C1061.5,-289.5 1055.5,-295.5 1049.5,-295.5"/>
<polyline fill="none" stroke="black" points="1049.5,-295.5 922.5,-295.5 "/>
<path fill="none" stroke="black" d="M922.5,-295.5C916.5,-295.5 910.5,-289.5 910.5,-283.5"/>
<polyline fill="none" stroke="black" points="910.5,-283.5 910.5,-12.5 "/>
<path fill="none" stroke="black" d="M910.5,-12.5C910.5,-6.5 916.5,-0.5 922.5,-0.5"/>
<text text-anchor="start" x="945" y="-282.433" font-family="Arial Bold" font-size="11.00">OpeningHours</text>
<polyline fill="none" stroke="black" points="910.5,-275.5 1061.5,-275.5 "/>
<text text-anchor="start" x="918" y="-261.167" font-family="Arial" font-size="10.00">friday_closed </text>
<text text-anchor="start" x="979" y="-261.167" font-family="Arial Italic" font-size="10.00" fill="#999999">boolean</text>
<text text-anchor="start" x="918" y="-248.667" font-family="Arial" font-size="10.00">friday_closes </text>
<text text-anchor="start" x="979" y="-248.667" font-family="Arial Italic" font-size="10.00" fill="#999999">time</text>
<text text-anchor="start" x="918" y="-236.667" font-family="Arial" font-size="10.00">friday_opens </text>
<text text-anchor="start" x="976" y="-236.667" font-family="Arial Italic" font-size="10.00" fill="#999999">time</text>
<text text-anchor="start" x="918" y="-224.667" font-family="Arial" font-size="10.00">minutes_before_closing </text>
<text text-anchor="start" x="1024" y="-224.667" font-family="Arial Italic" font-size="10.00" fill="#999999">integer</text>
<text text-anchor="start" x="918" y="-212.667" font-family="Arial" font-size="10.00">monday_closed </text>
<text text-anchor="start" x="990" y="-212.667" font-family="Arial Italic" font-size="10.00" fill="#999999">boolean</text>
<text text-anchor="start" x="918" y="-200.667" font-family="Arial" font-size="10.00">monday_closes </text>
<text text-anchor="start" x="990" y="-200.667" font-family="Arial Italic" font-size="10.00" fill="#999999">time</text>
<text text-anchor="start" x="918" y="-188.667" font-family="Arial" font-size="10.00">monday_opens </text>
<text text-anchor="start" x="988" y="-188.667" font-family="Arial Italic" font-size="10.00" fill="#999999">time</text>
<text text-anchor="start" x="918" y="-176.667" font-family="Arial" font-size="10.00">saturday_closed </text>
<text text-anchor="start" x="993" y="-176.667" font-family="Arial Italic" font-size="10.00" fill="#999999">boolean</text>
<text text-anchor="start" x="918" y="-164.667" font-family="Arial" font-size="10.00">saturday_closes </text>
<text text-anchor="start" x="993" y="-164.667" font-family="Arial Italic" font-size="10.00" fill="#999999">time</text>
<text text-anchor="start" x="918" y="-152.667" font-family="Arial" font-size="10.00">saturday_opens </text>
<text text-anchor="start" x="991" y="-152.667" font-family="Arial Italic" font-size="10.00" fill="#999999">time</text>
<text text-anchor="start" x="918" y="-140.667" font-family="Arial" font-size="10.00">sunday_closed </text>
<text text-anchor="start" x="987" y="-140.667" font-family="Arial Italic" font-size="10.00" fill="#999999">boolean</text>
<text text-anchor="start" x="918" y="-128.667" font-family="Arial" font-size="10.00">sunday_closes </text>
<text text-anchor="start" x="987" y="-128.667" font-family="Arial Italic" font-size="10.00" fill="#999999">time</text>
<text text-anchor="start" x="918" y="-116.667" font-family="Arial" font-size="10.00">sunday_opens </text>
<text text-anchor="start" x="985" y="-116.667" font-family="Arial Italic" font-size="10.00" fill="#999999">time</text>
<text text-anchor="start" x="918" y="-104.667" font-family="Arial" font-size="10.00">thursday_closed </text>
<text text-anchor="start" x="993" y="-104.667" font-family="Arial Italic" font-size="10.00" fill="#999999">boolean</text>
<text text-anchor="start" x="918" y="-92.6667" font-family="Arial" font-size="10.00">thursday_closes </text>
<text text-anchor="start" x="993" y="-92.6667" font-family="Arial Italic" font-size="10.00" fill="#999999">time</text>
<text text-anchor="start" x="918" y="-80.6667" font-family="Arial" font-size="10.00">thursday_opens </text>
<text text-anchor="start" x="991" y="-80.6667" font-family="Arial Italic" font-size="10.00" fill="#999999">time</text>
<text text-anchor="start" x="918" y="-68.6667" font-family="Arial" font-size="10.00">tuesday_closed </text>
<text text-anchor="start" x="990" y="-68.6667" font-family="Arial Italic" font-size="10.00" fill="#999999">boolean</text>
<text text-anchor="start" x="918" y="-56.6667" font-family="Arial" font-size="10.00">tuesday_closes </text>
<text text-anchor="start" x="990" y="-56.6667" font-family="Arial Italic" font-size="10.00" fill="#999999">time</text>
<text text-anchor="start" x="918" y="-44.6667" font-family="Arial" font-size="10.00">tuesday_opens </text>
<text text-anchor="start" x="988" y="-44.6667" font-family="Arial Italic" font-size="10.00" fill="#999999">time</text>
<text text-anchor="start" x="918" y="-32.6667" font-family="Arial" font-size="10.00">wednsday_closed </text>
<text text-anchor="start" x="999" y="-32.6667" font-family="Arial Italic" font-size="10.00" fill="#999999">boolean</text>
<text text-anchor="start" x="918" y="-20.6667" font-family="Arial" font-size="10.00">wednsday_closes </text>
<text text-anchor="start" x="999" y="-20.6667" font-family="Arial Italic" font-size="10.00" fill="#999999">time</text>
<text text-anchor="start" x="918" y="-8.66667" font-family="Arial" font-size="10.00">wednsday_opens </text>
<text text-anchor="start" x="997" y="-8.66667" font-family="Arial Italic" font-size="10.00" fill="#999999">time</text>
</g>
<!-- m_Options&#45;&gt;m_OpeningHours -->
<g id="edge24" class="edge"><title>m_Options&#45;&gt;m_OpeningHours</title>
<path fill="none" stroke="black" d="M873.586,-165.014C885.632,-163.191 898.151,-161.296 910.273,-159.461"/>
</g>
<!-- m_Organization -->
<g id="node10" class="node"><title>m_Organization</title>
<polyline fill="none" stroke="black" points="12.5,-297.5 133.5,-297.5 "/>
<path fill="none" stroke="black" d="M133.5,-297.5C139.5,-297.5 145.5,-303.5 145.5,-309.5"/>
<polyline fill="none" stroke="black" points="145.5,-309.5 145.5,-328.5 "/>
<path fill="none" stroke="black" d="M145.5,-328.5C145.5,-334.5 139.5,-340.5 133.5,-340.5"/>
<polyline fill="none" stroke="black" points="133.5,-340.5 12.5,-340.5 "/>
<path fill="none" stroke="black" d="M12.5,-340.5C6.5,-340.5 0.5,-334.5 0.5,-328.5"/>
<polyline fill="none" stroke="black" points="0.5,-328.5 0.5,-309.5 "/>
<path fill="none" stroke="black" d="M0.5,-309.5C0.5,-303.5 6.5,-297.5 12.5,-297.5"/>
<text text-anchor="start" x="37" y="-327.433" font-family="Arial Bold" font-size="11.00">Organization</text>
<polyline fill="none" stroke="black" points="0.5,-320.5 145.5,-320.5 "/>
<text text-anchor="start" x="8" y="-306.167" font-family="Arial" font-size="10.00">name </text>
<text text-anchor="start" x="36" y="-306.167" font-family="Arial Italic" font-size="10.00" fill="#999999">string ∗</text>
</g>
<!-- m_Organization&#45;&gt;m_Admin -->
<g id="edge22" class="edge"><title>m_Organization&#45;&gt;m_Admin</title>
<path fill="none" stroke="black" d="M114.405,-340.578C180.471,-373.662 314.763,-435.455 437,-458"/>
</g>
<!-- m_Organization&#45;&gt;m_Branch -->
<g id="edge8" class="edge"><title>m_Organization&#45;&gt;m_Branch</title>
<path fill="none" stroke="black" d="M145.716,-319C154.775,-319 164.087,-319 173.272,-319"/>
<polygon fill="black" stroke="black" points="173.4,-322.15 182.4,-319 173.4,-315.85 173.4,-322.15"/>
</g>
<!-- m_Organization&#45;&gt;m_Options -->
<g id="edge16" class="edge"><title>m_Organization&#45;&gt;m_Options</title>
<path fill="none" stroke="black" d="M130.941,-297.457C147.268,-292.048 165.17,-286.729 182,-283 293.413,-258.314 323.344,-263.221 437,-253"/>
<path fill="none" stroke="black" d="M437,-253C517.357,-243.742 541.484,-276.115 619,-253"/>
<path fill="none" stroke="black" d="M619,-253C655.988,-241.97 695.614,-225.764 728.418,-211.062"/>
</g>
<!-- m_ScreenResolution -->
<g id="node11" class="node"><title>m_ScreenResolution</title>
<polyline fill="none" stroke="black" points="376.5,-370.5 497.5,-370.5 "/>
<path fill="none" stroke="black" d="M497.5,-370.5C503.5,-370.5 509.5,-376.5 509.5,-382.5"/>
<polyline fill="none" stroke="black" points="509.5,-382.5 509.5,-401.5 "/>
<path fill="none" stroke="black" d="M509.5,-401.5C509.5,-407.5 503.5,-413.5 497.5,-413.5"/>
<polyline fill="none" stroke="black" points="497.5,-413.5 376.5,-413.5 "/>
<path fill="none" stroke="black" d="M376.5,-413.5C370.5,-413.5 364.5,-407.5 364.5,-401.5"/>
<polyline fill="none" stroke="black" points="364.5,-401.5 364.5,-382.5 "/>
<path fill="none" stroke="black" d="M364.5,-382.5C364.5,-376.5 370.5,-370.5 376.5,-370.5"/>
<text text-anchor="start" x="387" y="-400.433" font-family="Arial Bold" font-size="11.00">ScreenResolution</text>
<polyline fill="none" stroke="black" points="364.5,-393.5 509.5,-393.5 "/>
<text text-anchor="start" x="372" y="-379.167" font-family="Arial" font-size="10.00">resolution </text>
<text text-anchor="start" x="418" y="-379.167" font-family="Arial Italic" font-size="10.00" fill="#999999">string ∗</text>
</g>
<!-- m_ScreenResolution&#45;&gt;m_Client -->
<g id="edge32" class="edge"><title>m_ScreenResolution&#45;&gt;m_Client</title>
<path fill="none" stroke="black" d="M509.716,-372.423C521.795,-369.17 534.323,-365.798 546.4,-362.546"/>
</g>
<!-- m_User&#45;&gt;m_AnonymousUser -->
<g id="edge2" class="edge"><title>m_User&#45;&gt;m_AnonymousUser</title>
<path fill="none" stroke="#999999" d="M854.035,-397.129C870.968,-412.58 890.42,-428.576 910,-441 918.099,-446.139 927.165,-450.78 936.136,-454.832"/>
<polygon fill="none" stroke="#999999" points="856.546,-393.729 844.901,-388.627 850.823,-399.877 856.546,-393.729"/>
</g>
<!-- m_User&#45;&gt;m_GuestUser -->
<g id="edge4" class="edge"><title>m_User&#45;&gt;m_GuestUser</title>
<path fill="none" stroke="#999999" d="M885.204,-372.585C902.111,-378.526 919.392,-384.597 934.761,-389.997"/>
<polygon fill="none" stroke="#999999" points="886.3,-368.519 873.586,-368.503 883.515,-376.444 886.3,-368.519"/>
</g>
<!-- m_User&#45;&gt;m_LibraryUser -->
<g id="edge6" class="edge"><title>m_User&#45;&gt;m_LibraryUser</title>
<path fill="none" stroke="#999999" d="M885.646,-343C894.889,-343 904.238,-343 913.32,-343"/>
<polygon fill="none" stroke="#999999" points="885.586,-338.8 873.586,-343 885.586,-347.2 885.586,-338.8"/>
</g>
</g>
</svg>
